<?xml version="1.0" standalone="no"?>
<!DOCTYPE svg PUBLIC "-//W3C//DTD SVG 20010904//EN"
 "http://www.w3.org/TR/2001/REC-SVG-20010904/DTD/svg10.dtd">
<svg version="1.0" xmlns="http://www.w3.org/2000/svg"
 width="1026.000000pt" height="1026.000000pt" viewBox="0 0 1026.000000 1026.000000"
 preserveAspectRatio="xMidYMid meet">
<metadata>
Created by potrace 1.11, written by Peter Selinger 2001-2013
</metadata>
<g transform="translate(0.000000,1026.000000) scale(0.100000,-0.100000)"
fill="#000000" stroke="none">
<path d="M4307 8714 c-1 -1 -168 -5 -372 -9 -566 -9 -811 -16 -1200 -30 -82
-3 -199 -8 -260 -10 -60 -2 -159 -6 -220 -9 -260 -13 -324 -17 -390 -21 -38
-2 -110 -7 -160 -10 -332 -20 -541 -57 -705 -125 -229 -95 -434 -255 -561
-438 -109 -157 -209 -419 -283 -742 -14 -60 -18 -84 -31 -190 -21 -164 -23
-189 -41 -395 -3 -38 -7 -86 -9 -105 -1 -19 -6 -78 -9 -130 -4 -52 -9 -122
-11 -155 -3 -33 -7 -109 -10 -170 -3 -60 -7 -162 -10 -225 -8 -153 -8 -1526
-1 -1660 3 -58 8 -148 11 -200 10 -175 16 -275 20 -320 2 -25 7 -84 10 -132 3
-48 7 -102 9 -120 3 -18 7 -64 11 -103 11 -133 16 -180 20 -215 3 -19 8 -57
11 -85 3 -27 8 -59 10 -70 2 -11 9 -47 15 -80 39 -218 129 -488 222 -665 171
-323 498 -539 932 -615 17 -3 37 -8 45 -10 8 -2 44 -7 80 -10 36 -3 72 -8 80
-10 8 -2 40 -6 71 -10 31 -3 67 -8 79 -10 12 -2 61 -7 109 -10 47 -3 111 -8
141 -10 30 -2 114 -7 185 -10 72 -3 166 -8 210 -10 154 -8 548 -21 915 -30
135 -4 313 -8 395 -10 976 -25 2285 -25 3185 0 340 9 549 16 670 20 269 10
399 15 505 21 61 3 153 7 205 9 86 4 139 7 335 20 185 12 242 16 265 20 14 2
51 7 82 10 91 9 203 30 240 44 13 5 27 9 31 9 22 0 154 47 170 60 9 8 17 12
17 8 0 -7 51 20 145 75 118 68 301 238 367 340 124 189 246 521 293 799 3 19
8 42 10 50 2 8 7 40 10 70 3 30 8 71 10 90 3 19 7 64 10 100 10 116 14 154 19
195 2 22 7 83 11 135 4 52 8 111 10 130 2 19 7 89 10 155 3 66 8 140 10 165 6
73 17 438 20 665 1 116 4 272 6 348 2 75 1 137 -2 137 -3 0 -6 109 -6 243 0
230 -10 632 -18 707 -2 19 -7 87 -10 150 -12 203 -24 371 -30 410 -2 14 -7 63
-10 110 -4 47 -8 96 -10 110 -3 14 -7 52 -10 85 -12 125 -24 200 -50 310 -9
39 -19 80 -21 93 -22 111 -113 361 -178 490 -177 348 -565 603 -1001 656 -127
16 -200 22 -350 31 -49 3 -117 7 -150 10 -33 3 -114 7 -180 10 -66 3 -158 8
-204 10 -46 3 -150 7 -230 10 -80 3 -195 7 -256 10 -214 9 -524 18 -1125 31
-227 5 -2098 12 -2103 8z"/>
</g>
</svg>
